# 3ds Max Wavefront OBJ Exporter v0.97b - (c)2007 guruware
# File Created: 30.10.2014 08:28:06

mtllib column.mtl

#
# object column
#

v  -56.7467 23.0737 -58.7053
v  -56.7467 23.0737 59.5743
v  -58.2561 279.5050 57.5882
v  -58.2561 279.5050 -56.7192
v  57.3529 24.9818 59.1394
v  61.8749 17.7704 63.3317
v  60.8377 17.7668 -62.8189
v  57.3529 24.9818 -58.2704
v  61.7351 1.5050 63.7068
v  61.7351 1.5050 -62.8378
v  -63.2050 1.8346 61.5735
v  -63.2050 1.8346 -60.7045
v  -62.5226 17.2280 -62.0803
v  -62.5226 17.2280 62.9493
v  58.7214 279.4890 -57.0881
v  58.7214 279.4890 57.9571
v  -62.4078 285.3580 62.4087
v  -62.4078 285.3580 -61.5397
v  -62.7644 301.4650 62.5829
v  -62.7644 301.4650 -61.7139
v  63.2689 285.7480 -61.2939
v  63.2689 285.7480 62.1629
v  62.8247 301.8020 62.5717
v  62.8247 301.8020 -61.7028
# 24 vertices

vn -0.5630 0.4822 -0.6712
vn -0.5623 0.4814 0.6724
vn -0.6337 -0.4861 0.6017
vn -0.6351 -0.4873 -0.5993
vn 0.6389 0.4074 0.6526
vn 0.6801 0.3088 0.6649
vn 0.6545 0.3059 -0.6914
vn 0.6731 0.3804 -0.6342
vn 0.5739 -0.5738 0.5843
vn 0.5894 -0.5624 -0.5800
vn -0.6013 -0.5872 0.5418
vn -0.5988 -0.5866 -0.5452
vn -0.6627 0.3370 -0.6688
vn -0.6642 0.3392 0.6662
vn 0.6217 -0.4600 -0.6340
vn 0.6202 -0.4585 0.6364
vn -0.6544 -0.3581 0.6660
vn -0.6553 -0.3571 -0.6656
vn -0.5844 0.5678 0.5797
vn -0.5844 0.5678 -0.5797
vn 0.6777 -0.3292 -0.6575
vn 0.6769 -0.3301 0.6579
vn 0.5671 0.5787 0.5861
vn 0.5671 0.5787 -0.5861
# 24 vertex normals

vt 0.0214 0.0595 0.0000
vt 0.2394 0.0591 0.0000
vt 0.2366 0.5317 0.0000
vt 0.0259 0.5321 0.0000
vt 0.5095 0.0566 0.0000
vt 0.5018 0.0409 0.0000
vt 0.7343 0.0426 0.0000
vt 0.7259 0.0573 0.0000
vt 0.5013 0.0109 0.0000
vt 0.7346 0.0126 0.0000
vt 0.3220 0.7339 0.0000
vt 0.5474 0.7339 0.0000
vt 0.5513 0.9642 0.0000
vt 0.3180 0.9642 0.0000
vt 0.9818 0.0145 0.0000
vt 0.9805 0.0430 0.0000
vt 0.7531 0.0437 0.0000
vt 0.7515 0.0137 0.0000
vt 0.2575 0.0390 0.0000
vt 0.2561 0.0106 0.0000
vt 0.4865 0.0096 0.0000
vt 0.4868 0.0396 0.0000
vt 0.9699 0.0554 0.0000
vt 0.7595 0.0594 0.0000
vt 0.0151 0.0443 0.0000
vt 0.2456 0.0439 0.0000
vt 0.0176 0.0159 0.0000
vt 0.2430 0.0155 0.0000
vt 0.2681 0.0515 0.0000
vt 0.4784 0.0550 0.0000
vt 0.9735 0.5281 0.0000
vt 0.7579 0.5285 0.0000
vt 0.5100 0.5257 0.0000
vt 0.7221 0.5265 0.0000
vt 0.4810 0.5241 0.0000
vt 0.2654 0.5242 0.0000
vt 0.2455 0.5449 0.0000
vt 0.0171 0.5454 0.0000
vt 0.2459 0.5746 0.0000
vt 0.0168 0.5751 0.0000
vt 0.9812 0.5421 0.0000
vt 0.7495 0.5424 0.0000
vt 0.7298 0.5407 0.0000
vt 0.5022 0.5400 0.0000
vt 0.4895 0.5380 0.0000
vt 0.2578 0.5382 0.0000
vt 0.4888 0.5676 0.0000
vt 0.2573 0.5678 0.0000
vt 0.9818 0.5718 0.0000
vt 0.7503 0.5720 0.0000
vt 0.7304 0.5703 0.0000
vt 0.5014 0.5696 0.0000
vt 0.2748 0.7357 0.0000
vt 0.2748 0.9648 0.0000
vt 0.0433 0.9648 0.0000
vt 0.0433 0.7357 0.0000
# 56 texture coords

g column
usemtl wire_143224087
s 1
f 1/1/1 2/2/2 3/3/3 4/4/4 
f 5/5/5 6/6/6 7/7/7 8/8/8 
f 9/9/9 10/10/10 7/7/7 6/6/6 
f 11/11/11 12/12/12 10/13/10 9/14/9 
f 12/15/12 13/16/13 7/17/7 10/18/10 
f 14/19/14 11/20/11 9/21/9 6/22/6 
f 7/17/7 13/16/13 1/23/1 8/24/8 
f 13/25/13 14/26/14 2/2/2 1/1/1 
f 14/26/14 13/25/13 12/27/12 11/28/11 
f 2/29/2 14/19/14 6/22/6 5/30/5 
f 4/31/4 15/32/15 8/24/8 1/23/1 
f 16/33/16 5/5/5 8/8/8 15/34/15 
f 5/30/5 16/35/16 3/36/3 2/29/2 
f 17/37/17 18/38/18 4/4/4 3/3/3 
f 19/39/19 20/40/20 18/38/18 17/37/17 
f 18/41/18 21/42/21 15/32/15 4/31/4 
f 21/43/21 22/44/22 16/33/16 15/34/15 
f 22/45/22 17/46/17 3/36/3 16/35/16 
f 23/47/23 19/48/19 17/46/17 22/45/22 
f 18/41/18 20/49/20 24/50/24 21/42/21 
f 24/51/24 23/52/23 22/44/22 21/43/21 
f 23/53/23 24/54/24 20/55/20 19/56/19 
# 22 polygons

